<?xml version="1.0" encoding="utf-8"?>
<!-- Generator: Adobe Illustrator 17.0.0, SVG Export Plug-In . SVG Version: 6.00 Build 0)  -->
<!DOCTYPE svg PUBLIC "-//W3C//DTD SVG 1.1//EN" "http://www.w3.org/Graphics/SVG/1.1/DTD/svg11.dtd">
<svg version="1.1" id="图层_1" xmlns="http://www.w3.org/2000/svg" xmlns:xlink="http://www.w3.org/1999/xlink" x="0px" y="0px"
	 width="640px" height="1136px" viewBox="0 0 640 1136" enable-background="new 0 0 640 1136" xml:space="preserve">
<g>
	
		<rect x="505.232" y="36.153" transform="matrix(0.7071 0.7071 -0.7071 0.7071 230.1875 -370.1273)" fill="#09B8C1" width="113.289" height="113.289"/>
	
		<rect x="24.615" y="836.358" transform="matrix(0.7071 0.7071 -0.7071 0.7071 655.2488 204.0953)" fill="#08BBC4" width="113.289" height="113.289"/>
	
		<rect x="184.821" y="836.358" transform="matrix(0.7071 0.7071 -0.7071 0.7071 702.172 90.8127)" fill="#06ACBB" width="113.289" height="113.289"/>
	
		<rect x="345.026" y="836.358" transform="matrix(0.7071 0.7071 -0.7071 0.7071 749.0952 -22.4699)" fill="#09BAC3" width="113.289" height="113.289"/>
	
		<rect x="505.232" y="836.358" transform="matrix(0.7071 0.7071 -0.7071 0.7071 796.0184 -135.7524)" fill="#09BCC7" width="113.289" height="113.289"/>
	
		<rect x="24.615" y="676.153" transform="matrix(0.7071 0.7071 -0.7071 0.7071 541.9662 157.1721)" fill="#08C0C8" width="113.289" height="113.289"/>
	
		<rect x="184.821" y="676.153" transform="matrix(0.7071 0.7071 -0.7071 0.7071 588.8894 43.8896)" fill="#08C2CC" width="113.289" height="113.289"/>
	
		<rect x="345.026" y="676.153" transform="matrix(0.7071 0.7071 -0.7071 0.7071 635.8126 -69.3931)" fill="#07B3BB" width="113.289" height="113.289"/>
	
		<rect x="505.232" y="676.153" transform="matrix(0.7071 0.7071 -0.7071 0.7071 682.7358 -182.6756)" fill="#09B8C1" width="113.289" height="113.289"/>
	
		<rect x="24.615" y="516.153" transform="matrix(0.7071 0.7071 -0.7071 0.7071 428.8292 110.3092)" fill="#08C0C8" width="113.289" height="113.289"/>
	
		<rect x="184.821" y="516.153" transform="matrix(0.7071 0.7071 -0.7071 0.7071 475.7523 -2.9734)" fill="#08C2CC" width="113.289" height="113.289"/>
	
		<rect x="345.026" y="516.153" transform="matrix(0.7071 0.7071 -0.7071 0.7071 522.6755 -116.256)" fill="#07B3BB" width="113.289" height="113.289"/>
	
		<rect x="505.232" y="516.153" transform="matrix(0.7071 0.7071 -0.7071 0.7071 569.5987 -229.5385)" fill="#09B8C1" width="113.289" height="113.289"/>
	
		<rect x="24.615" y="996.564" transform="matrix(0.7071 0.7071 -0.7071 0.7071 768.5314 251.0185)" fill="#08BBC4" width="113.289" height="113.289"/>
	
		<rect x="184.821" y="996.564" transform="matrix(0.7071 0.7071 -0.7071 0.7071 815.4547 137.7359)" fill="#08BBC4" width="113.289" height="113.289"/>
	
		<rect x="345.026" y="996.564" transform="matrix(0.7071 0.7071 -0.7071 0.7071 862.3778 24.4533)" fill="#09ACB8" width="113.289" height="113.289"/>
	
		<rect x="505.232" y="996.564" transform="matrix(0.7071 0.7071 -0.7071 0.7071 909.301 -88.8292)" fill="#08ACB7" width="113.289" height="113.289"/>
	
		<rect x="104.657" y="756.316" transform="matrix(0.7071 0.7071 -0.7071 0.7071 622.0942 124.0529)" fill="#05B2C1" width="113.289" height="113.289"/>
	
		<rect x="-55.548" y="756.316" transform="matrix(0.7071 0.7071 -0.7071 0.7071 575.171 237.3355)" fill="#08C2CC" width="113.289" height="113.289"/>
	
		<rect x="264.863" y="756.316" transform="matrix(0.7071 0.7071 -0.7071 0.7071 669.0174 10.7703)" fill="#08BBC3" width="113.289" height="113.289"/>
	
		<rect x="425.069" y="756.316" transform="matrix(0.7071 0.7071 -0.7071 0.7071 715.9406 -102.5122)" fill="#08C2CC" width="113.289" height="113.289"/>
	
		<rect x="585.275" y="756.316" transform="matrix(0.7071 0.7071 -0.7071 0.7071 762.8638 -215.7949)" fill="#05B0BF" width="113.289" height="113.289"/>
	
		<rect x="104.657" y="916.522" transform="matrix(0.7071 0.7071 -0.7071 0.7071 735.3768 170.9761)" fill="#07B3BB" width="113.289" height="113.289"/>
	
		<rect x="-55.548" y="916.522" transform="matrix(0.7071 0.7071 -0.7071 0.7071 688.4536 284.2587)" fill="#07ADBC" width="113.289" height="113.289"/>
	
		<rect x="264.863" y="916.522" transform="matrix(0.7071 0.7071 -0.7071 0.7071 782.3 57.6935)" fill="#07B3BB" width="113.289" height="113.289"/>
	
		<rect x="425.069" y="916.522" transform="matrix(0.7071 0.7071 -0.7071 0.7071 829.2231 -55.5891)" fill="#09B5C0" width="113.289" height="113.289"/>
	
		<rect x="585.275" y="916.522" transform="matrix(0.7071 0.7071 -0.7071 0.7071 876.1464 -168.8717)" fill="#09B5C1" width="113.289" height="113.289"/>
	
		<rect x="104.657" y="596.11" transform="matrix(0.7071 0.7071 -0.7071 0.7071 508.8116 77.1297)" fill="#07B3BB" width="113.289" height="113.289"/>
	
		<rect x="-55.548" y="596.11" transform="matrix(0.7071 0.7071 -0.7071 0.7071 461.8885 190.4123)" fill="#00C4C4" width="113.289" height="113.289"/>
	
		<rect x="264.863" y="596.11" transform="matrix(0.7071 0.7071 -0.7071 0.7071 555.7349 -36.1529)" fill="#08BBC3" width="113.289" height="113.289"/>
	
		<rect x="425.069" y="596.11" transform="matrix(0.7071 0.7071 -0.7071 0.7071 602.658 -149.4354)" fill="#08C2CC" width="113.289" height="113.289"/>
	
		<rect x="585.275" y="596.11" transform="matrix(0.7071 0.7071 -0.7071 0.7071 649.5812 -262.718)" fill="#09BCC7" width="113.289" height="113.289"/>
	
		<rect x="104.657" y="436.11" transform="matrix(0.7071 0.7071 -0.7071 0.7071 395.6745 30.2668)" fill="#07B3BB" width="113.289" height="113.289"/>
	
		<rect x="-55.548" y="436.11" transform="matrix(0.7071 0.7071 -0.7071 0.7071 348.7513 143.5494)" fill="#00C4C4" width="113.289" height="113.289"/>
	
		<rect x="264.863" y="436.11" transform="matrix(0.7071 0.7071 -0.7071 0.7071 442.5977 -83.0158)" fill="#08BBC3" width="113.289" height="113.289"/>
	
		<rect x="425.069" y="436.11" transform="matrix(0.7071 0.7071 -0.7071 0.7071 489.5209 -196.2983)" fill="#08C2CC" width="113.289" height="113.289"/>
	
		<rect x="585.275" y="436.11" transform="matrix(0.7071 0.7071 -0.7071 0.7071 536.4441 -309.581)" fill="#09BCC7" width="113.289" height="113.289"/>
	
		<rect x="24.615" y="356.153" transform="matrix(0.7071 0.7071 -0.7071 0.7071 315.6921 63.4463)" fill="#08C0C8" width="113.289" height="113.289"/>
	
		<rect x="184.821" y="356.153" transform="matrix(0.7071 0.7071 -0.7071 0.7071 362.6153 -49.8363)" fill="#08C2CC" width="113.289" height="113.289"/>
	
		<rect x="345.026" y="356.153" transform="matrix(0.7071 0.7071 -0.7071 0.7071 409.5385 -163.1189)" fill="#07B3BB" width="113.289" height="113.289"/>
	
		<rect x="505.232" y="356.153" transform="matrix(0.7071 0.7071 -0.7071 0.7071 456.4616 -276.4014)" fill="#09B8C1" width="113.289" height="113.289"/>
	
		<rect x="104.657" y="276.11" transform="matrix(0.7071 0.7071 -0.7071 0.7071 282.5374 -16.5961)" fill="#07B3BB" width="113.289" height="113.289"/>
	
		<rect x="-55.548" y="276.11" transform="matrix(0.7071 0.7071 -0.7071 0.7071 235.6143 96.6865)" fill="#00C4C4" width="113.289" height="113.289"/>
	
		<rect x="264.863" y="276.11" transform="matrix(0.7071 0.7071 -0.7071 0.7071 329.4606 -129.8787)" fill="#08BBC3" width="113.289" height="113.289"/>
	
		<rect x="425.069" y="276.11" transform="matrix(0.7071 0.7071 -0.7071 0.7071 376.3838 -243.1613)" fill="#08C2CC" width="113.289" height="113.289"/>
	
		<rect x="585.275" y="276.11" transform="matrix(0.7071 0.7071 -0.7071 0.7071 423.307 -356.4439)" fill="#09BCC7" width="113.289" height="113.289"/>
	
		<rect x="24.615" y="196.153" transform="matrix(0.7071 0.7071 -0.7071 0.7071 202.555 16.5833)" fill="#08C0C8" width="113.289" height="113.289"/>
	
		<rect x="184.821" y="196.153" transform="matrix(0.7071 0.7071 -0.7071 0.7071 249.4782 -96.6992)" fill="#08C2CC" width="113.289" height="113.289"/>
	
		<rect x="345.026" y="196.153" transform="matrix(0.7071 0.7071 -0.7071 0.7071 296.4014 -209.9818)" fill="#07B3BB" width="113.289" height="113.289"/>
	
		<rect x="505.232" y="196.153" transform="matrix(0.7071 0.7071 -0.7071 0.7071 343.3245 -323.2643)" fill="#09B8C1" width="113.289" height="113.289"/>
	
		<rect x="104.657" y="116.11" transform="matrix(0.7071 0.7071 -0.7071 0.7071 169.4003 -63.459)" fill="#07B3BB" width="113.289" height="113.289"/>
	
		<rect x="-55.548" y="116.11" transform="matrix(0.7071 0.7071 -0.7071 0.7071 122.4772 49.8235)" fill="#00C4C4" width="113.289" height="113.289"/>
	
		<rect x="264.863" y="116.11" transform="matrix(0.7071 0.7071 -0.7071 0.7071 216.3235 -176.7417)" fill="#08BBC3" width="113.289" height="113.289"/>
	
		<rect x="425.069" y="116.11" transform="matrix(0.7071 0.7071 -0.7071 0.7071 263.2467 -290.0242)" fill="#0DAAAD" width="113.289" height="113.289"/>
	
		<rect x="585.275" y="116.11" transform="matrix(0.7071 0.7071 -0.7071 0.7071 310.1699 -403.3068)" fill="#09BCC7" width="113.289" height="113.289"/>
	
		<rect x="24.615" y="36.153" transform="matrix(0.7071 0.7071 -0.7071 0.7071 89.4179 -30.2796)" fill="#08C0C8" width="113.289" height="113.289"/>
	
		<rect x="184.821" y="36.153" transform="matrix(0.7071 0.7071 -0.7071 0.7071 136.3411 -143.5621)" fill="#08C2CC" width="113.289" height="113.289"/>
	
		<rect x="345.026" y="36.153" transform="matrix(0.7071 0.7071 -0.7071 0.7071 183.2643 -256.8447)" fill="#07B3BB" width="113.289" height="113.289"/>
	
		<rect x="104.657" y="-43.89" transform="matrix(0.7071 0.7071 -0.7071 0.7071 56.2633 -110.3219)" fill="#07B3BB" width="113.289" height="113.289"/>
	
		<rect x="-55.548" y="-43.89" transform="matrix(0.7071 0.7071 -0.7071 0.7071 9.3401 2.9606)" fill="#00C4C4" width="113.289" height="113.289"/>
	
		<rect x="264.863" y="-43.89" transform="matrix(0.7071 0.7071 -0.7071 0.7071 103.1865 -223.6046)" fill="#08BBC3" width="113.289" height="113.289"/>
	
		<rect x="425.069" y="-43.89" transform="matrix(0.7071 0.7071 -0.7071 0.7071 150.1096 -336.8871)" fill="#08C2CC" width="113.289" height="113.289"/>
	
		<rect x="585.275" y="-43.89" transform="matrix(0.7071 0.7071 -0.7071 0.7071 197.0328 -450.1697)" fill="#09BCC7" width="113.289" height="113.289"/>
	
		<rect x="104.657" y="1076.727" transform="matrix(0.7071 0.7071 -0.7071 0.7071 848.6594 217.8993)" fill="#08ACB7" width="113.289" height="113.289"/>
	
		<rect x="-55.548" y="1076.727" transform="matrix(0.7071 0.7071 -0.7071 0.7071 801.7362 331.1819)" fill="#07B3BB" width="113.289" height="113.289"/>
	
		<rect x="264.863" y="1076.727" transform="matrix(0.7071 0.7071 -0.7071 0.7071 895.5826 104.6167)" fill="#09BAC3" width="113.289" height="113.289"/>
	
		<rect x="425.069" y="1076.727" transform="matrix(0.7071 0.7071 -0.7071 0.7071 942.5057 -8.6659)" fill="#08BBC3" width="113.289" height="113.289"/>
	
		<rect x="585.275" y="1076.727" transform="matrix(0.7071 0.7071 -0.7071 0.7071 989.4289 -121.9485)" fill="#09B5C1" width="113.289" height="113.289"/>
</g>
<linearGradient id="SVGID_2_" gradientUnits="userSpaceOnUse" x1="319" y1="1136" x2="319" y2="-1">
	<stop  offset="0" style="stop-color:#238895;stop-opacity:0.8"/>
	<stop  offset="0.1505" style="stop-color:#5EBDBA;stop-opacity:0"/>
	<stop  offset="0.4185" style="stop-color:#47BFB7;stop-opacity:0.3155"/>
	<stop  offset="0.7804" style="stop-color:#2EC1B4;stop-opacity:0.7415"/>
	<stop  offset="1" style="stop-color:#25C2B3"/>
</linearGradient>
<rect x="-1" y="-1" fill="url(#SVGID_2_)" width="640" height="1137"/>
</svg>
